<mxfile host="app.diagrams.net" agent="Mozilla/5.0 (Windows NT 10.0; Win64; x64) AppleWebKit/537.36 (KHTML, like Gecko) Chrome/133.0.0.0 Safari/537.36" version="26.1.0">
  <diagram name="P치gina-1" id="cOEXleuI9BTkhU73orrk">
    <mxGraphModel dx="1434" dy="772" grid="1" gridSize="10" guides="1" tooltips="1" connect="1" arrows="1" fold="1" page="1" pageScale="1" pageWidth="827" pageHeight="1169" math="0" shadow="0">
      <root>
        <mxCell id="0" />
        <mxCell id="1" parent="0" />
        <mxCell id="XHTHCLahkQyKMGEa5gE3-2" value="" style="rounded=0;whiteSpace=wrap;html=1;" vertex="1" parent="1">
          <mxGeometry x="60" y="135" width="830" height="390" as="geometry" />
        </mxCell>
        <mxCell id="XHTHCLahkQyKMGEa5gE3-3" value="Usu치rio" style="shape=umlActor;verticalLabelPosition=bottom;verticalAlign=top;html=1;outlineConnect=0;" vertex="1" parent="1">
          <mxGeometry x="20" y="300" width="30" height="60" as="geometry" />
        </mxCell>
        <mxCell id="XHTHCLahkQyKMGEa5gE3-6" value="" style="group" vertex="1" connectable="0" parent="1">
          <mxGeometry x="320" y="290" width="120" height="80" as="geometry" />
        </mxCell>
        <mxCell id="XHTHCLahkQyKMGEa5gE3-4" value="" style="ellipse;whiteSpace=wrap;html=1;" vertex="1" parent="XHTHCLahkQyKMGEa5gE3-6">
          <mxGeometry width="120" height="80" as="geometry" />
        </mxCell>
        <mxCell id="XHTHCLahkQyKMGEa5gE3-5" value="Criar Invent치rio" style="text;html=1;align=center;verticalAlign=middle;whiteSpace=wrap;rounded=0;" vertex="1" parent="XHTHCLahkQyKMGEa5gE3-6">
          <mxGeometry x="30" y="25" width="60" height="30" as="geometry" />
        </mxCell>
        <mxCell id="XHTHCLahkQyKMGEa5gE3-7" value="" style="endArrow=classic;html=1;rounded=0;entryX=0;entryY=0.5;entryDx=0;entryDy=0;" edge="1" parent="1" source="XHTHCLahkQyKMGEa5gE3-15" target="XHTHCLahkQyKMGEa5gE3-4">
          <mxGeometry width="50" height="50" relative="1" as="geometry">
            <mxPoint x="250" y="330" as="sourcePoint" />
            <mxPoint x="630" y="370" as="targetPoint" />
          </mxGeometry>
        </mxCell>
        <mxCell id="XHTHCLahkQyKMGEa5gE3-8" value="Criar Produto" style="ellipse;whiteSpace=wrap;html=1;" vertex="1" parent="1">
          <mxGeometry x="480" y="400" width="120" height="80" as="geometry" />
        </mxCell>
        <mxCell id="XHTHCLahkQyKMGEa5gE3-9" value="Excluir Produto" style="ellipse;whiteSpace=wrap;html=1;" vertex="1" parent="1">
          <mxGeometry x="660" y="400" width="120" height="80" as="geometry" />
        </mxCell>
        <mxCell id="XHTHCLahkQyKMGEa5gE3-10" value="" style="endArrow=classic;html=1;rounded=0;" edge="1" parent="1" source="XHTHCLahkQyKMGEa5gE3-8" target="XHTHCLahkQyKMGEa5gE3-9">
          <mxGeometry width="50" height="50" relative="1" as="geometry">
            <mxPoint x="580" y="420" as="sourcePoint" />
            <mxPoint x="630" y="370" as="targetPoint" />
          </mxGeometry>
        </mxCell>
        <mxCell id="XHTHCLahkQyKMGEa5gE3-11" value="" style="endArrow=classic;html=1;rounded=0;entryX=0;entryY=0.5;entryDx=0;entryDy=0;" edge="1" parent="1" source="XHTHCLahkQyKMGEa5gE3-4" target="XHTHCLahkQyKMGEa5gE3-8">
          <mxGeometry width="50" height="50" relative="1" as="geometry">
            <mxPoint x="580" y="420" as="sourcePoint" />
            <mxPoint x="630" y="370" as="targetPoint" />
          </mxGeometry>
        </mxCell>
        <mxCell id="XHTHCLahkQyKMGEa5gE3-13" value="Editar Produto" style="ellipse;whiteSpace=wrap;html=1;" vertex="1" parent="1">
          <mxGeometry x="660" y="280" width="120" height="80" as="geometry" />
        </mxCell>
        <mxCell id="XHTHCLahkQyKMGEa5gE3-14" value="" style="endArrow=classic;html=1;rounded=0;" edge="1" parent="1" source="XHTHCLahkQyKMGEa5gE3-8" target="XHTHCLahkQyKMGEa5gE3-13">
          <mxGeometry width="50" height="50" relative="1" as="geometry">
            <mxPoint x="580" y="420" as="sourcePoint" />
            <mxPoint x="630" y="370" as="targetPoint" />
          </mxGeometry>
        </mxCell>
        <mxCell id="XHTHCLahkQyKMGEa5gE3-15" value="" style="ellipse;whiteSpace=wrap;html=1;" vertex="1" parent="1">
          <mxGeometry x="130" y="290" width="120" height="80" as="geometry" />
        </mxCell>
        <mxCell id="XHTHCLahkQyKMGEa5gE3-16" value="" style="endArrow=classic;html=1;rounded=0;exitX=0;exitY=0.5;exitDx=0;exitDy=0;" edge="1" parent="1" source="XHTHCLahkQyKMGEa5gE3-2" target="XHTHCLahkQyKMGEa5gE3-15">
          <mxGeometry width="50" height="50" relative="1" as="geometry">
            <mxPoint x="390" y="420" as="sourcePoint" />
            <mxPoint x="440" y="370" as="targetPoint" />
          </mxGeometry>
        </mxCell>
        <mxCell id="XHTHCLahkQyKMGEa5gE3-20" value="Login/Cadastro" style="text;html=1;align=center;verticalAlign=middle;whiteSpace=wrap;rounded=0;" vertex="1" parent="1">
          <mxGeometry x="160" y="315" width="60" height="30" as="geometry" />
        </mxCell>
        <mxCell id="XHTHCLahkQyKMGEa5gE3-32" value="" style="group" vertex="1" connectable="0" parent="1">
          <mxGeometry x="480" y="180" width="120" height="80" as="geometry" />
        </mxCell>
        <mxCell id="XHTHCLahkQyKMGEa5gE3-33" value="" style="ellipse;whiteSpace=wrap;html=1;" vertex="1" parent="XHTHCLahkQyKMGEa5gE3-32">
          <mxGeometry width="120" height="80" as="geometry" />
        </mxCell>
        <mxCell id="XHTHCLahkQyKMGEa5gE3-34" value="Excluir Invent치rio" style="text;html=1;align=center;verticalAlign=middle;whiteSpace=wrap;rounded=0;" vertex="1" parent="XHTHCLahkQyKMGEa5gE3-32">
          <mxGeometry x="30" y="25" width="60" height="30" as="geometry" />
        </mxCell>
        <mxCell id="XHTHCLahkQyKMGEa5gE3-35" value="" style="endArrow=classic;html=1;rounded=0;" edge="1" parent="1" source="XHTHCLahkQyKMGEa5gE3-4" target="XHTHCLahkQyKMGEa5gE3-33">
          <mxGeometry width="50" height="50" relative="1" as="geometry">
            <mxPoint x="390" y="420" as="sourcePoint" />
            <mxPoint x="440" y="370" as="targetPoint" />
          </mxGeometry>
        </mxCell>
      </root>
    </mxGraphModel>
  </diagram>
</mxfile>
